<svg id="Layer_1" data-name="Layer 1" xmlns="http://www.w3.org/2000/svg" viewBox="0 0 45.18 45.09"><defs><style>.cls-1{fill:#757576;}</style></defs><title>Untitled-4</title><g id="_Group_" data-name="&lt;Group&gt;"><g id="_Group_2" data-name="&lt;Group&gt;"><path class="cls-1" d="M45.28,45.54H0.72V41.92H45.28v3.63ZM1.22,45H44.78V42.42H1.22V45Z" transform="translate(-0.41 -0.46)"/></g><g id="_Group_3" data-name="&lt;Group&gt;"><path class="cls-1" d="M45.36,15.57H0.76L0.63,12.82H45.36v2.74Zm-44.12-.5H44.86V13.32H1.15Z" transform="translate(-0.41 -0.46)"/></g><g id="_Group_4" data-name="&lt;Group&gt;"><g id="_Group_5" data-name="&lt;Group&gt;"><g id="_Group_6" data-name="&lt;Group&gt;"><path class="cls-1" d="M10.16,37H4.93V20.56h5.23V37Zm-4.73-.5H9.66V21.06H5.43V36.46Z" transform="translate(-0.41 -0.46)"/></g><g id="_Group_7" data-name="&lt;Group&gt;"><path class="cls-1" d="M11.3,19.52H3.79V17.13H11.3v2.39Zm-7-.5H10.8V17.63H4.29V19Z" transform="translate(-0.41 -0.46)"/></g><g id="_Group_8" data-name="&lt;Group&gt;"><path class="cls-1" d="M11.3,40.58H3.79V38.2H11.3v2.39Zm-7-.5H10.8V38.7H4.29v1.39Z" transform="translate(-0.41 -0.46)"/></g></g><g id="_Group_9" data-name="&lt;Group&gt;"><g id="_Group_10" data-name="&lt;Group&gt;"><path class="cls-1" d="M35.82,37V20.6h5.27V36.93Zm0.5-15.85V36.46l4.27,0V21.1H36.32Z" transform="translate(-0.41 -0.46)"/></g><g id="_Group_11" data-name="&lt;Group&gt;"><path class="cls-1" d="M25.52,37V20.6h5.27V36.93ZM26,21.1V36.46l4.27,0V21.1H26Z" transform="translate(-0.41 -0.46)"/></g><g id="_Group_12" data-name="&lt;Group&gt;"><path class="cls-1" d="M42.21,19.52H34.7V17.13h7.51v2.39Zm-7-.5h6.51V17.63H35.2V19Z" transform="translate(-0.41 -0.46)"/></g><g id="_Group_13" data-name="&lt;Group&gt;"><path class="cls-1" d="M42.21,40.58H34.7V38.2h7.51v2.39Zm-7-.5h6.51V38.7H35.2v1.39Z" transform="translate(-0.41 -0.46)"/></g></g><g id="_Group_14" data-name="&lt;Group&gt;"><g id="_Group_15" data-name="&lt;Group&gt;"><path class="cls-1" d="M31.9,19.52H24.4V17.13H31.9v2.39Zm-7-.5H31.4V17.63H24.9V19Z" transform="translate(-0.41 -0.46)"/></g><g id="_Group_16" data-name="&lt;Group&gt;"><path class="cls-1" d="M31.9,40.58H24.4V38.2H31.9v2.39Zm-7-.5H31.4V38.7H24.9v1.39Z" transform="translate(-0.41 -0.46)"/></g></g><g id="_Group_17" data-name="&lt;Group&gt;"><g id="_Group_18" data-name="&lt;Group&gt;"><path class="cls-1" d="M20.46,36.93H15.18V20.63h5.28V36.93Zm-4.78-.5H20V21.13H15.68V36.43Z" transform="translate(-0.41 -0.46)"/></g><g id="_Group_19" data-name="&lt;Group&gt;"><path class="cls-1" d="M21.6,19.52H14.09V17.13H21.6v2.39Zm-7-.5H21.1V17.63H14.59V19Z" transform="translate(-0.41 -0.46)"/></g><g id="_Group_20" data-name="&lt;Group&gt;"><path class="cls-1" d="M21.6,40.58H14.09V38.2H21.6v2.39Zm-7-.5H21.1V38.7H14.59v1.39Z" transform="translate(-0.41 -0.46)"/></g></g></g><g id="_Group_21" data-name="&lt;Group&gt;"><path class="cls-1" d="M45.59,11.31H0.41L23,0.46,23.1,0.51Zm-43-.5H43.39L23,1Z" transform="translate(-0.41 -0.46)"/></g></g></svg>